<?xml version="1.0" encoding="UTF-8" standalone="no"?>
<!DOCTYPE svg PUBLIC "-//W3C//DTD SVG 1.1//EN"
 "http://www.w3.org/Graphics/SVG/1.1/DTD/svg11.dtd">
<!-- Generated by graphviz version 2.40.1 (0)
 -->
<!-- Title: G Pages: 1 -->
<svg width="1239pt" height="425pt"
 viewBox="0.00 0.00 1239.20 425.49" xmlns="http://www.w3.org/2000/svg" xmlns:xlink="http://www.w3.org/1999/xlink">
<g id="graph0" class="graph" transform="scale(1 1) rotate(0) translate(21.6 403.8869)">
<title>G</title>
<polygon fill="#111111" stroke="transparent" points="-21.6,21.6 -21.6,-403.8869 1217.6,-403.8869 1217.6,21.6 -21.6,21.6"/>
<!-- ../knexfile.js -->
<g id="node1" class="node">
<title>../knexfile.js</title>
<path fill="none" stroke="#cfffac" d="M1188.3333,-307C1188.3333,-307 1116.6667,-307 1116.6667,-307 1112.8333,-307 1109,-303.1667 1109,-299.3333 1109,-299.3333 1109,-291.6667 1109,-291.6667 1109,-287.8333 1112.8333,-284 1116.6667,-284 1116.6667,-284 1188.3333,-284 1188.3333,-284 1192.1667,-284 1196,-287.8333 1196,-291.6667 1196,-291.6667 1196,-299.3333 1196,-299.3333 1196,-303.1667 1192.1667,-307 1188.3333,-307"/>
<text text-anchor="middle" x="1152.5" y="-291.8" font-family="Arial" font-size="14.00" fill="#cfffac">../knexfile.js</text>
</g>
<!-- app.js -->
<g id="node2" class="node">
<title>app.js</title>
<path fill="none" stroke="#c6c5fe" d="M59.3333,-228C59.3333,-228 20.6667,-228 20.6667,-228 16.8333,-228 13,-224.1667 13,-220.3333 13,-220.3333 13,-212.6667 13,-212.6667 13,-208.8333 16.8333,-205 20.6667,-205 20.6667,-205 59.3333,-205 59.3333,-205 63.1667,-205 67,-208.8333 67,-212.6667 67,-212.6667 67,-220.3333 67,-220.3333 67,-224.1667 63.1667,-228 59.3333,-228"/>
<text text-anchor="middle" x="40" y="-212.8" font-family="Arial" font-size="14.00" fill="#c6c5fe">app.js</text>
</g>
<!-- config/bookshelf.js -->
<g id="node3" class="node">
<title>config/bookshelf.js</title>
<path fill="none" stroke="#c6c5fe" d="M1065.3333,-307C1065.3333,-307 952.6667,-307 952.6667,-307 948.8333,-307 945,-303.1667 945,-299.3333 945,-299.3333 945,-291.6667 945,-291.6667 945,-287.8333 948.8333,-284 952.6667,-284 952.6667,-284 1065.3333,-284 1065.3333,-284 1069.1667,-284 1073,-287.8333 1073,-291.6667 1073,-291.6667 1073,-299.3333 1073,-299.3333 1073,-303.1667 1069.1667,-307 1065.3333,-307"/>
<text text-anchor="middle" x="1009" y="-291.8" font-family="Arial" font-size="14.00" fill="#c6c5fe">config/bookshelf.js</text>
</g>
<!-- app.js&#45;&gt;config/bookshelf.js -->
<g id="edge1" class="edge">
<title>app.js&#45;&gt;config/bookshelf.js</title>
<path fill="none" stroke="#757575" d="M67.0251,-227.6475C71.7242,-230.3949 76.287,-233.6713 80,-237.5 105.4623,-263.7554 86.8282,-289.4391 116,-311.5 246.9014,-410.4928 315.3819,-376.5 479.5,-376.5 479.5,-376.5 479.5,-376.5 689,-376.5 787.1417,-376.5 815.8581,-388.4255 909,-357.5 938.2524,-347.7875 967.7623,-327.9848 987.0635,-313.3609"/>
<polygon fill="#757575" stroke="#757575" points="989.4244,-315.959 995.1757,-307.0611 985.1308,-310.4304 989.4244,-315.959"/>
</g>
<!-- middlewares/errorMiddleware.js -->
<g id="node4" class="node">
<title>middlewares/errorMiddleware.js</title>
<path fill="none" stroke="#cfffac" d="M317.3333,-105C317.3333,-105 123.6667,-105 123.6667,-105 119.8333,-105 116,-101.1667 116,-97.3333 116,-97.3333 116,-89.6667 116,-89.6667 116,-85.8333 119.8333,-82 123.6667,-82 123.6667,-82 317.3333,-82 317.3333,-82 321.1667,-82 325,-85.8333 325,-89.6667 325,-89.6667 325,-97.3333 325,-97.3333 325,-101.1667 321.1667,-105 317.3333,-105"/>
<text text-anchor="middle" x="220.5" y="-89.8" font-family="Arial" font-size="14.00" fill="#cfffac">middlewares/errorMiddleware.js</text>
</g>
<!-- app.js&#45;&gt;middlewares/errorMiddleware.js -->
<g id="edge2" class="edge">
<title>app.js&#45;&gt;middlewares/errorMiddleware.js</title>
<path fill="none" stroke="#757575" d="M45.1578,-204.8149C55.3376,-183.2147 80.1751,-137.1795 116,-114.5 119.1564,-112.5018 122.4648,-110.6882 125.8816,-109.0424"/>
<polygon fill="#757575" stroke="#757575" points="127.3392,-112.2256 135.1494,-105.0666 124.5795,-105.7926 127.3392,-112.2256"/>
</g>
<!-- models/index.js -->
<g id="node5" class="node">
<title>models/index.js</title>
<path fill="none" stroke="#c6c5fe" d="M736.3333,-269C736.3333,-269 641.6667,-269 641.6667,-269 637.8333,-269 634,-265.1667 634,-261.3333 634,-261.3333 634,-253.6667 634,-253.6667 634,-249.8333 637.8333,-246 641.6667,-246 641.6667,-246 736.3333,-246 736.3333,-246 740.1667,-246 744,-249.8333 744,-253.6667 744,-253.6667 744,-261.3333 744,-261.3333 744,-265.1667 740.1667,-269 736.3333,-269"/>
<text text-anchor="middle" x="689" y="-253.8" font-family="Arial" font-size="14.00" fill="#c6c5fe">models/index.js</text>
</g>
<!-- app.js&#45;&gt;models/index.js -->
<g id="edge3" class="edge">
<title>app.js&#45;&gt;models/index.js</title>
<path fill="none" stroke="#757575" d="M65.4105,-228.0378C70.4571,-230.8179 75.5626,-234.0072 80,-237.5 99.0549,-252.4987 94.8129,-266.7036 116,-278.5 212.4599,-332.206 250.9761,-310.3575 361,-319.5 465.9715,-328.2227 497.3414,-350.5314 598,-319.5 625.4742,-311.0302 652.0735,-291.1147 669.3442,-276.1245"/>
<polygon fill="#757575" stroke="#757575" points="671.9236,-278.5128 677.0361,-269.2331 667.2526,-273.2992 671.9236,-278.5128"/>
</g>
<!-- routes/answer.js -->
<g id="node6" class="node">
<title>routes/answer.js</title>
<path fill="none" stroke="#c6c5fe" d="M269.8333,-269C269.8333,-269 171.1667,-269 171.1667,-269 167.3333,-269 163.5,-265.1667 163.5,-261.3333 163.5,-261.3333 163.5,-253.6667 163.5,-253.6667 163.5,-249.8333 167.3333,-246 171.1667,-246 171.1667,-246 269.8333,-246 269.8333,-246 273.6667,-246 277.5,-249.8333 277.5,-253.6667 277.5,-253.6667 277.5,-261.3333 277.5,-261.3333 277.5,-265.1667 273.6667,-269 269.8333,-269"/>
<text text-anchor="middle" x="220.5" y="-253.8" font-family="Arial" font-size="14.00" fill="#c6c5fe">routes/answer.js</text>
</g>
<!-- app.js&#45;&gt;routes/answer.js -->
<g id="edge4" class="edge">
<title>app.js&#45;&gt;routes/answer.js</title>
<path fill="none" stroke="#757575" d="M67.3023,-224.617C81.714,-228.756 99.7369,-233.7033 116,-237.5 128.0646,-240.3165 140.9804,-243.03 153.4734,-245.5012"/>
<polygon fill="#757575" stroke="#757575" points="152.893,-248.9538 163.3774,-247.4284 154.2301,-242.0827 152.893,-248.9538"/>
</g>
<!-- routes/question.js -->
<g id="node7" class="node">
<title>routes/question.js</title>
<path fill="none" stroke="#c6c5fe" d="M273.8333,-228C273.8333,-228 167.1667,-228 167.1667,-228 163.3333,-228 159.5,-224.1667 159.5,-220.3333 159.5,-220.3333 159.5,-212.6667 159.5,-212.6667 159.5,-208.8333 163.3333,-205 167.1667,-205 167.1667,-205 273.8333,-205 273.8333,-205 277.6667,-205 281.5,-208.8333 281.5,-212.6667 281.5,-212.6667 281.5,-220.3333 281.5,-220.3333 281.5,-224.1667 277.6667,-228 273.8333,-228"/>
<text text-anchor="middle" x="220.5" y="-212.8" font-family="Arial" font-size="14.00" fill="#c6c5fe">routes/question.js</text>
</g>
<!-- app.js&#45;&gt;routes/question.js -->
<g id="edge5" class="edge">
<title>app.js&#45;&gt;routes/question.js</title>
<path fill="none" stroke="#757575" d="M67.0227,-216.5C88.7523,-216.5 120.3092,-216.5 149.165,-216.5"/>
<polygon fill="#757575" stroke="#757575" points="149.2385,-220.0001 159.2385,-216.5 149.2384,-213.0001 149.2385,-220.0001"/>
</g>
<!-- routes/rating.js -->
<g id="node8" class="node">
<title>routes/rating.js</title>
<path fill="none" stroke="#c6c5fe" d="M265.3333,-187C265.3333,-187 175.6667,-187 175.6667,-187 171.8333,-187 168,-183.1667 168,-179.3333 168,-179.3333 168,-171.6667 168,-171.6667 168,-167.8333 171.8333,-164 175.6667,-164 175.6667,-164 265.3333,-164 265.3333,-164 269.1667,-164 273,-167.8333 273,-171.6667 273,-171.6667 273,-179.3333 273,-179.3333 273,-183.1667 269.1667,-187 265.3333,-187"/>
<text text-anchor="middle" x="220.5" y="-171.8" font-family="Arial" font-size="14.00" fill="#c6c5fe">routes/rating.js</text>
</g>
<!-- app.js&#45;&gt;routes/rating.js -->
<g id="edge6" class="edge">
<title>app.js&#45;&gt;routes/rating.js</title>
<path fill="none" stroke="#757575" d="M67.3417,-208.8875C81.7642,-204.9779 99.7848,-200.2594 116,-196.5 129.4906,-193.3723 144.024,-190.2786 157.8376,-187.4664"/>
<polygon fill="#757575" stroke="#757575" points="158.6312,-190.8769 167.7436,-185.472 157.2495,-184.0147 158.6312,-190.8769"/>
</g>
<!-- routes/session.js -->
<g id="node9" class="node">
<title>routes/session.js</title>
<path fill="none" stroke="#c6c5fe" d="M271.3333,-146C271.3333,-146 169.6667,-146 169.6667,-146 165.8333,-146 162,-142.1667 162,-138.3333 162,-138.3333 162,-130.6667 162,-130.6667 162,-126.8333 165.8333,-123 169.6667,-123 169.6667,-123 271.3333,-123 271.3333,-123 275.1667,-123 279,-126.8333 279,-130.6667 279,-130.6667 279,-138.3333 279,-138.3333 279,-142.1667 275.1667,-146 271.3333,-146"/>
<text text-anchor="middle" x="220.5" y="-130.8" font-family="Arial" font-size="14.00" fill="#c6c5fe">routes/session.js</text>
</g>
<!-- app.js&#45;&gt;routes/session.js -->
<g id="edge7" class="edge">
<title>app.js&#45;&gt;routes/session.js</title>
<path fill="none" stroke="#757575" d="M51.1468,-204.5971C64.9798,-190.5841 89.9449,-167.6814 116,-155.5 127.2433,-150.2435 139.7682,-146.2999 152.1314,-143.342"/>
<polygon fill="#757575" stroke="#757575" points="152.9695,-146.7414 161.9842,-141.175 151.4658,-139.9048 152.9695,-146.7414"/>
</g>
<!-- config/bookshelf.js&#45;&gt;../knexfile.js -->
<g id="edge8" class="edge">
<title>config/bookshelf.js&#45;&gt;../knexfile.js</title>
<path fill="none" stroke="#757575" d="M1073.1951,-295.5C1081.7897,-295.5 1090.5305,-295.5 1098.9169,-295.5"/>
<polygon fill="#757575" stroke="#757575" points="1098.9371,-299.0001 1108.937,-295.5 1098.937,-292.0001 1098.9371,-299.0001"/>
</g>
<!-- models/answer.js -->
<g id="node19" class="node">
<title>models/answer.js</title>
<path fill="none" stroke="#c6c5fe" d="M897.3333,-225C897.3333,-225 791.6667,-225 791.6667,-225 787.8333,-225 784,-221.1667 784,-217.3333 784,-217.3333 784,-209.6667 784,-209.6667 784,-205.8333 787.8333,-202 791.6667,-202 791.6667,-202 897.3333,-202 897.3333,-202 901.1667,-202 905,-205.8333 905,-209.6667 905,-209.6667 905,-217.3333 905,-217.3333 905,-221.1667 901.1667,-225 897.3333,-225"/>
<text text-anchor="middle" x="844.5" y="-209.8" font-family="Arial" font-size="14.00" fill="#c6c5fe">models/answer.js</text>
</g>
<!-- models/index.js&#45;&gt;models/answer.js -->
<g id="edge18" class="edge">
<title>models/index.js&#45;&gt;models/answer.js</title>
<path fill="none" stroke="#757575" d="M729.8558,-245.9395C749.4204,-240.4036 773.0424,-233.7195 793.7478,-227.8608"/>
<polygon fill="#757575" stroke="#757575" points="794.9781,-231.1501 803.6474,-225.0596 793.0722,-224.4146 794.9781,-231.1501"/>
</g>
<!-- models/question.js -->
<g id="node20" class="node">
<title>models/question.js</title>
<path fill="none" stroke="#c6c5fe" d="M901.3333,-348C901.3333,-348 787.6667,-348 787.6667,-348 783.8333,-348 780,-344.1667 780,-340.3333 780,-340.3333 780,-332.6667 780,-332.6667 780,-328.8333 783.8333,-325 787.6667,-325 787.6667,-325 901.3333,-325 901.3333,-325 905.1667,-325 909,-328.8333 909,-332.6667 909,-332.6667 909,-340.3333 909,-340.3333 909,-344.1667 905.1667,-348 901.3333,-348"/>
<text text-anchor="middle" x="844.5" y="-332.8" font-family="Arial" font-size="14.00" fill="#c6c5fe">models/question.js</text>
</g>
<!-- models/index.js&#45;&gt;models/question.js -->
<g id="edge19" class="edge">
<title>models/index.js&#45;&gt;models/question.js</title>
<path fill="none" stroke="#757575" d="M704.0232,-269.0997C721.4748,-282.1206 751.5237,-303.1653 780,-316.5 783.8223,-318.2899 787.8451,-319.9719 791.9364,-321.5409"/>
<polygon fill="#757575" stroke="#757575" points="790.9505,-324.9057 801.545,-324.9946 793.3183,-318.3183 790.9505,-324.9057"/>
</g>
<!-- models/rating.js -->
<g id="node21" class="node">
<title>models/rating.js</title>
<path fill="none" stroke="#c6c5fe" d="M892.8333,-307C892.8333,-307 796.1667,-307 796.1667,-307 792.3333,-307 788.5,-303.1667 788.5,-299.3333 788.5,-299.3333 788.5,-291.6667 788.5,-291.6667 788.5,-287.8333 792.3333,-284 796.1667,-284 796.1667,-284 892.8333,-284 892.8333,-284 896.6667,-284 900.5,-287.8333 900.5,-291.6667 900.5,-291.6667 900.5,-299.3333 900.5,-299.3333 900.5,-303.1667 896.6667,-307 892.8333,-307"/>
<text text-anchor="middle" x="844.5" y="-291.8" font-family="Arial" font-size="14.00" fill="#c6c5fe">models/rating.js</text>
</g>
<!-- models/index.js&#45;&gt;models/rating.js -->
<g id="edge20" class="edge">
<title>models/index.js&#45;&gt;models/rating.js</title>
<path fill="none" stroke="#757575" d="M736.0771,-269.0044C752.2923,-272.9669 770.6273,-277.4475 787.5446,-281.5817"/>
<polygon fill="#757575" stroke="#757575" points="786.7697,-284.9952 797.3148,-283.9692 788.4315,-278.1953 786.7697,-284.9952"/>
</g>
<!-- models/session.js -->
<g id="node22" class="node">
<title>models/session.js</title>
<path fill="none" stroke="#c6c5fe" d="M898.8333,-266C898.8333,-266 790.1667,-266 790.1667,-266 786.3333,-266 782.5,-262.1667 782.5,-258.3333 782.5,-258.3333 782.5,-250.6667 782.5,-250.6667 782.5,-246.8333 786.3333,-243 790.1667,-243 790.1667,-243 898.8333,-243 898.8333,-243 902.6667,-243 906.5,-246.8333 906.5,-250.6667 906.5,-250.6667 906.5,-258.3333 906.5,-258.3333 906.5,-262.1667 902.6667,-266 898.8333,-266"/>
<text text-anchor="middle" x="844.5" y="-250.8" font-family="Arial" font-size="14.00" fill="#c6c5fe">models/session.js</text>
</g>
<!-- models/index.js&#45;&gt;models/session.js -->
<g id="edge21" class="edge">
<title>models/index.js&#45;&gt;models/session.js</title>
<path fill="none" stroke="#757575" d="M744.2613,-256.4339C753.3005,-256.2595 762.7833,-256.0765 772.1607,-255.8956"/>
<polygon fill="#757575" stroke="#757575" points="772.3382,-259.3929 782.2688,-255.7006 772.2031,-252.3942 772.3382,-259.3929"/>
</g>
<!-- controllers/answer.js -->
<g id="node10" class="node">
<title>controllers/answer.js</title>
<path fill="none" stroke="#c6c5fe" d="M541.3333,-310C541.3333,-310 417.6667,-310 417.6667,-310 413.8333,-310 410,-306.1667 410,-302.3333 410,-302.3333 410,-294.6667 410,-294.6667 410,-290.8333 413.8333,-287 417.6667,-287 417.6667,-287 541.3333,-287 541.3333,-287 545.1667,-287 549,-290.8333 549,-294.6667 549,-294.6667 549,-302.3333 549,-302.3333 549,-306.1667 545.1667,-310 541.3333,-310"/>
<text text-anchor="middle" x="479.5" y="-294.8" font-family="Arial" font-size="14.00" fill="#c6c5fe">controllers/answer.js</text>
</g>
<!-- routes/answer.js&#45;&gt;controllers/answer.js -->
<g id="edge25" class="edge">
<title>routes/answer.js&#45;&gt;controllers/answer.js</title>
<path fill="none" stroke="#757575" d="M277.6593,-266.5484C313.427,-272.2104 360.0351,-279.5886 399.4509,-285.8281"/>
<polygon fill="#757575" stroke="#757575" points="399.1446,-289.3231 409.5689,-287.4298 400.2391,-282.4092 399.1446,-289.3231"/>
</g>
<!-- middlewares/jwtMiddleware.js -->
<g id="node14" class="node">
<title>middlewares/jwtMiddleware.js</title>
<path fill="none" stroke="#c6c5fe" d="M570.3333,-187C570.3333,-187 388.6667,-187 388.6667,-187 384.8333,-187 381,-183.1667 381,-179.3333 381,-179.3333 381,-171.6667 381,-171.6667 381,-167.8333 384.8333,-164 388.6667,-164 388.6667,-164 570.3333,-164 570.3333,-164 574.1667,-164 578,-167.8333 578,-171.6667 578,-171.6667 578,-179.3333 578,-179.3333 578,-183.1667 574.1667,-187 570.3333,-187"/>
<text text-anchor="middle" x="479.5" y="-171.8" font-family="Arial" font-size="14.00" fill="#c6c5fe">middlewares/jwtMiddleware.js</text>
</g>
<!-- routes/answer.js&#45;&gt;middlewares/jwtMiddleware.js -->
<g id="edge26" class="edge">
<title>routes/answer.js&#45;&gt;middlewares/jwtMiddleware.js</title>
<path fill="none" stroke="#757575" d="M277.6738,-253.4936C293.7525,-250.5686 310.7306,-245.6639 325,-237.5 346.0483,-225.4577 339.8696,-208.3978 361,-196.5 364.7379,-194.3953 368.6384,-192.4932 372.6515,-190.7746"/>
<polygon fill="#757575" stroke="#757575" points="374.1281,-193.9563 382.1958,-187.0888 371.6064,-187.4263 374.1281,-193.9563"/>
</g>
<!-- middlewares/validationMiddleware.js -->
<g id="node18" class="node">
<title>middlewares/validationMiddleware.js</title>
<path fill="none" stroke="#c6c5fe" d="M590.3333,-146C590.3333,-146 368.6667,-146 368.6667,-146 364.8333,-146 361,-142.1667 361,-138.3333 361,-138.3333 361,-130.6667 361,-130.6667 361,-126.8333 364.8333,-123 368.6667,-123 368.6667,-123 590.3333,-123 590.3333,-123 594.1667,-123 598,-126.8333 598,-130.6667 598,-130.6667 598,-138.3333 598,-138.3333 598,-142.1667 594.1667,-146 590.3333,-146"/>
<text text-anchor="middle" x="479.5" y="-130.8" font-family="Arial" font-size="14.00" fill="#c6c5fe">middlewares/validationMiddleware.js</text>
</g>
<!-- routes/answer.js&#45;&gt;middlewares/validationMiddleware.js -->
<g id="edge27" class="edge">
<title>routes/answer.js&#45;&gt;middlewares/validationMiddleware.js</title>
<path fill="none" stroke="#757575" d="M277.5813,-256.4812C294.2919,-253.7172 311.6404,-248.1519 325,-237.5 356.1208,-212.6868 329.7099,-180.0993 361,-155.5 363.048,-153.8899 365.1777,-152.3868 367.3761,-150.9842"/>
<polygon fill="#757575" stroke="#757575" points="369.1561,-153.9989 376.1698,-146.0579 365.7349,-147.8918 369.1561,-153.9989"/>
</g>
<!-- controllers/question.js -->
<g id="node11" class="node">
<title>controllers/question.js</title>
<path fill="none" stroke="#c6c5fe" d="M545.3333,-269C545.3333,-269 413.6667,-269 413.6667,-269 409.8333,-269 406,-265.1667 406,-261.3333 406,-261.3333 406,-253.6667 406,-253.6667 406,-249.8333 409.8333,-246 413.6667,-246 413.6667,-246 545.3333,-246 545.3333,-246 549.1667,-246 553,-249.8333 553,-253.6667 553,-253.6667 553,-261.3333 553,-261.3333 553,-265.1667 549.1667,-269 545.3333,-269"/>
<text text-anchor="middle" x="479.5" y="-253.8" font-family="Arial" font-size="14.00" fill="#c6c5fe">controllers/question.js</text>
</g>
<!-- routes/question.js&#45;&gt;controllers/question.js -->
<g id="edge28" class="edge">
<title>routes/question.js&#45;&gt;controllers/question.js</title>
<path fill="none" stroke="#757575" d="M281.5514,-226.1645C315.7269,-231.5745 358.8276,-238.3974 396.0787,-244.2943"/>
<polygon fill="#757575" stroke="#757575" points="395.9937,-247.8244 406.418,-245.931 397.0883,-240.9105 395.9937,-247.8244"/>
</g>
<!-- routes/question.js&#45;&gt;middlewares/jwtMiddleware.js -->
<g id="edge29" class="edge">
<title>routes/question.js&#45;&gt;middlewares/jwtMiddleware.js</title>
<path fill="none" stroke="#757575" d="M281.5514,-206.8355C315.7269,-201.4255 358.8276,-194.6026 396.0787,-188.7057"/>
<polygon fill="#757575" stroke="#757575" points="397.0883,-192.0895 406.418,-187.069 395.9937,-185.1756 397.0883,-192.0895"/>
</g>
<!-- routes/question.js&#45;&gt;middlewares/validationMiddleware.js -->
<g id="edge30" class="edge">
<title>routes/question.js&#45;&gt;middlewares/validationMiddleware.js</title>
<path fill="none" stroke="#757575" d="M281.7556,-211.7112C296.5947,-208.7189 311.9331,-203.9759 325,-196.5 346.0483,-184.4577 339.8696,-167.3978 361,-155.5 364.7379,-153.3953 368.6384,-151.4932 372.6515,-149.7746"/>
<polygon fill="#757575" stroke="#757575" points="374.1281,-152.9563 382.1958,-146.0888 371.6064,-146.4263 374.1281,-152.9563"/>
</g>
<!-- controllers/rating.js -->
<g id="node12" class="node">
<title>controllers/rating.js</title>
<path fill="none" stroke="#c6c5fe" d="M536.8333,-228C536.8333,-228 422.1667,-228 422.1667,-228 418.3333,-228 414.5,-224.1667 414.5,-220.3333 414.5,-220.3333 414.5,-212.6667 414.5,-212.6667 414.5,-208.8333 418.3333,-205 422.1667,-205 422.1667,-205 536.8333,-205 536.8333,-205 540.6667,-205 544.5,-208.8333 544.5,-212.6667 544.5,-212.6667 544.5,-220.3333 544.5,-220.3333 544.5,-224.1667 540.6667,-228 536.8333,-228"/>
<text text-anchor="middle" x="479.5" y="-212.8" font-family="Arial" font-size="14.00" fill="#c6c5fe">controllers/rating.js</text>
</g>
<!-- routes/rating.js&#45;&gt;controllers/rating.js -->
<g id="edge31" class="edge">
<title>routes/rating.js&#45;&gt;controllers/rating.js</title>
<path fill="none" stroke="#757575" d="M273.2247,-183.8464C311.0169,-189.8289 362.4623,-197.9728 404.5212,-204.6308"/>
<polygon fill="#757575" stroke="#757575" points="404.0195,-208.0948 414.4437,-206.2015 405.114,-201.1809 404.0195,-208.0948"/>
</g>
<!-- routes/rating.js&#45;&gt;middlewares/jwtMiddleware.js -->
<g id="edge32" class="edge">
<title>routes/rating.js&#45;&gt;middlewares/jwtMiddleware.js</title>
<path fill="none" stroke="#757575" d="M273.2247,-175.5C301.239,-175.5 336.7554,-175.5 370.3896,-175.5"/>
<polygon fill="#757575" stroke="#757575" points="370.757,-179.0001 380.757,-175.5 370.757,-172.0001 370.757,-179.0001"/>
</g>
<!-- routes/rating.js&#45;&gt;middlewares/validationMiddleware.js -->
<g id="edge33" class="edge">
<title>routes/rating.js&#45;&gt;middlewares/validationMiddleware.js</title>
<path fill="none" stroke="#757575" d="M273.2247,-167.1536C308.6759,-161.5417 356.1411,-154.0279 396.6025,-147.6228"/>
<polygon fill="#757575" stroke="#757575" points="397.3971,-151.0407 406.7268,-146.0201 396.3025,-144.1268 397.3971,-151.0407"/>
</g>
<!-- controllers/session.js -->
<g id="node13" class="node">
<title>controllers/session.js</title>
<path fill="none" stroke="#c6c5fe" d="M542.8333,-105C542.8333,-105 416.1667,-105 416.1667,-105 412.3333,-105 408.5,-101.1667 408.5,-97.3333 408.5,-97.3333 408.5,-89.6667 408.5,-89.6667 408.5,-85.8333 412.3333,-82 416.1667,-82 416.1667,-82 542.8333,-82 542.8333,-82 546.6667,-82 550.5,-85.8333 550.5,-89.6667 550.5,-89.6667 550.5,-97.3333 550.5,-97.3333 550.5,-101.1667 546.6667,-105 542.8333,-105"/>
<text text-anchor="middle" x="479.5" y="-89.8" font-family="Arial" font-size="14.00" fill="#c6c5fe">controllers/session.js</text>
</g>
<!-- routes/session.js&#45;&gt;controllers/session.js -->
<g id="edge34" class="edge">
<title>routes/session.js&#45;&gt;controllers/session.js</title>
<path fill="none" stroke="#757575" d="M279.2711,-125.1965C314.3448,-119.6443 359.4035,-112.5114 397.8924,-106.4186"/>
<polygon fill="#757575" stroke="#757575" points="398.7118,-109.8325 408.0415,-104.812 397.6172,-102.9186 398.7118,-109.8325"/>
</g>
<!-- routes/session.js&#45;&gt;middlewares/jwtMiddleware.js -->
<g id="edge35" class="edge">
<title>routes/session.js&#45;&gt;middlewares/jwtMiddleware.js</title>
<path fill="none" stroke="#757575" d="M279.2711,-143.8035C313.9338,-149.2907 358.3488,-156.3216 396.5366,-162.3668"/>
<polygon fill="#757575" stroke="#757575" points="396.1893,-165.8553 406.6136,-163.962 397.2838,-158.9414 396.1893,-165.8553"/>
</g>
<!-- routes/session.js&#45;&gt;middlewares/validationMiddleware.js -->
<g id="edge36" class="edge">
<title>routes/session.js&#45;&gt;middlewares/validationMiddleware.js</title>
<path fill="none" stroke="#757575" d="M279.2711,-134.5C300.5873,-134.5 325.5916,-134.5 350.5677,-134.5"/>
<polygon fill="#757575" stroke="#757575" points="350.8799,-138.0001 360.8799,-134.5 350.8798,-131.0001 350.8799,-138.0001"/>
</g>
<!-- controllers/answer.js&#45;&gt;models/index.js -->
<g id="edge9" class="edge">
<title>controllers/answer.js&#45;&gt;models/index.js</title>
<path fill="none" stroke="#757575" d="M549.1799,-287.4517C565.2478,-284.7066 582.2455,-281.6444 598,-278.5 608.8345,-276.3376 620.3485,-273.8385 631.4127,-271.3351"/>
<polygon fill="#757575" stroke="#757575" points="632.4485,-274.6886 641.4148,-269.0445 630.8858,-267.8653 632.4485,-274.6886"/>
</g>
<!-- controllers/question.js&#45;&gt;models/index.js -->
<g id="edge10" class="edge">
<title>controllers/question.js&#45;&gt;models/index.js</title>
<path fill="none" stroke="#757575" d="M553.0673,-257.5C576.0718,-257.5 601.2841,-257.5 623.6805,-257.5"/>
<polygon fill="#757575" stroke="#757575" points="623.7546,-261.0001 633.7546,-257.5 623.7546,-254.0001 623.7546,-261.0001"/>
</g>
<!-- controllers/rating.js&#45;&gt;models/index.js -->
<g id="edge11" class="edge">
<title>controllers/rating.js&#45;&gt;models/index.js</title>
<path fill="none" stroke="#757575" d="M544.7842,-227.5752C562.109,-230.6493 580.7851,-234.0844 598,-237.5 607.7578,-239.4361 618.0792,-241.5962 628.1301,-243.7609"/>
<polygon fill="#757575" stroke="#757575" points="627.5448,-247.2153 638.0601,-245.9191 629.0315,-240.375 627.5448,-247.2153"/>
</g>
<!-- controllers/session.js&#45;&gt;models/index.js -->
<g id="edge12" class="edge">
<title>controllers/session.js&#45;&gt;models/index.js</title>
<path fill="none" stroke="#757575" d="M550.5087,-96.3883C567.1171,-99.5986 584.0217,-105.1462 598,-114.5 642.6044,-144.3477 669.8415,-204.2476 681.818,-236.2298"/>
<polygon fill="#757575" stroke="#757575" points="678.6244,-237.6928 685.2976,-245.922 685.2127,-235.3275 678.6244,-237.6928"/>
</g>
<!-- utils/errors.js -->
<g id="node15" class="node">
<title>utils/errors.js</title>
<path fill="none" stroke="#cfffac" d="M727.8333,-105C727.8333,-105 650.1667,-105 650.1667,-105 646.3333,-105 642.5,-101.1667 642.5,-97.3333 642.5,-97.3333 642.5,-89.6667 642.5,-89.6667 642.5,-85.8333 646.3333,-82 650.1667,-82 650.1667,-82 727.8333,-82 727.8333,-82 731.6667,-82 735.5,-85.8333 735.5,-89.6667 735.5,-89.6667 735.5,-97.3333 735.5,-97.3333 735.5,-101.1667 731.6667,-105 727.8333,-105"/>
<text text-anchor="middle" x="689" y="-89.8" font-family="Arial" font-size="14.00" fill="#cfffac">utils/errors.js</text>
</g>
<!-- middlewares/jwtMiddleware.js&#45;&gt;utils/errors.js -->
<g id="edge13" class="edge">
<title>middlewares/jwtMiddleware.js&#45;&gt;utils/errors.js</title>
<path fill="none" stroke="#757575" d="M571.8085,-163.96C580.8073,-161.6383 589.6773,-158.8497 598,-155.5 624.2137,-144.9496 650.494,-125.9129 668.0248,-111.7072"/>
<polygon fill="#757575" stroke="#757575" points="670.4297,-114.2596 675.8893,-105.1798 665.9591,-108.8732 670.4297,-114.2596"/>
</g>
<!-- middlewares/ownerMiddleware.js -->
<g id="node16" class="node">
<title>middlewares/ownerMiddleware.js</title>
<path fill="none" stroke="#c6c5fe" d="M580.3333,-64C580.3333,-64 378.6667,-64 378.6667,-64 374.8333,-64 371,-60.1667 371,-56.3333 371,-56.3333 371,-48.6667 371,-48.6667 371,-44.8333 374.8333,-41 378.6667,-41 378.6667,-41 580.3333,-41 580.3333,-41 584.1667,-41 588,-44.8333 588,-48.6667 588,-48.6667 588,-56.3333 588,-56.3333 588,-60.1667 584.1667,-64 580.3333,-64"/>
<text text-anchor="middle" x="479.5" y="-48.8" font-family="Arial" font-size="14.00" fill="#c6c5fe">middlewares/ownerMiddleware.js</text>
</g>
<!-- middlewares/ownerMiddleware.js&#45;&gt;utils/errors.js -->
<g id="edge14" class="edge">
<title>middlewares/ownerMiddleware.js&#45;&gt;utils/errors.js</title>
<path fill="none" stroke="#757575" d="M547.268,-64.0168C563.8844,-66.9764 581.6048,-70.247 598,-73.5 609.1672,-75.7157 621.0725,-78.2248 632.4658,-80.6985"/>
<polygon fill="#757575" stroke="#757575" points="631.7978,-84.1351 642.315,-82.855 633.295,-77.2971 631.7978,-84.1351"/>
</g>
<!-- middlewares/roleMiddleware.js -->
<g id="node17" class="node">
<title>middlewares/roleMiddleware.js</title>
<path fill="none" stroke="#c6c5fe" d="M573.3333,-23C573.3333,-23 385.6667,-23 385.6667,-23 381.8333,-23 378,-19.1667 378,-15.3333 378,-15.3333 378,-7.6667 378,-7.6667 378,-3.8333 381.8333,0 385.6667,0 385.6667,0 573.3333,0 573.3333,0 577.1667,0 581,-3.8333 581,-7.6667 581,-7.6667 581,-15.3333 581,-15.3333 581,-19.1667 577.1667,-23 573.3333,-23"/>
<text text-anchor="middle" x="479.5" y="-7.8" font-family="Arial" font-size="14.00" fill="#c6c5fe">middlewares/roleMiddleware.js</text>
</g>
<!-- middlewares/roleMiddleware.js&#45;&gt;utils/errors.js -->
<g id="edge15" class="edge">
<title>middlewares/roleMiddleware.js&#45;&gt;utils/errors.js</title>
<path fill="none" stroke="#757575" d="M571.8085,-23.04C580.8073,-25.3617 589.6773,-28.1503 598,-31.5 624.2137,-42.0504 650.494,-61.0871 668.0248,-75.2928"/>
<polygon fill="#757575" stroke="#757575" points="665.9591,-78.1268 675.8893,-81.8202 670.4297,-72.7404 665.9591,-78.1268"/>
</g>
<!-- middlewares/validationMiddleware.js&#45;&gt;utils/errors.js -->
<g id="edge16" class="edge">
<title>middlewares/validationMiddleware.js&#45;&gt;utils/errors.js</title>
<path fill="none" stroke="#757575" d="M552.0061,-122.9672C567.2303,-120.3484 583.1663,-117.4606 598,-114.5 609.191,-112.2664 621.107,-109.6736 632.5034,-107.088"/>
<polygon fill="#757575" stroke="#757575" points="633.39,-110.4756 642.3534,-104.8269 631.8238,-103.6531 633.39,-110.4756"/>
</g>
<!-- models/answer.js&#45;&gt;config/bookshelf.js -->
<g id="edge17" class="edge">
<title>models/answer.js&#45;&gt;config/bookshelf.js</title>
<path fill="none" stroke="#757575" d="M884.9678,-225.0743C893.0604,-227.8332 901.4042,-231.0049 909,-234.5 935.9148,-246.8844 964.5822,-264.9289 984.2906,-278.1803"/>
<polygon fill="#757575" stroke="#757575" points="982.442,-281.156 992.6769,-283.894 986.3833,-275.371 982.442,-281.156"/>
</g>
<!-- models/question.js&#45;&gt;config/bookshelf.js -->
<g id="edge22" class="edge">
<title>models/question.js&#45;&gt;config/bookshelf.js</title>
<path fill="none" stroke="#757575" d="M890.7602,-324.9701C910.115,-320.1461 932.7818,-314.4966 953.0628,-309.4418"/>
<polygon fill="#757575" stroke="#757575" points="953.9456,-312.8289 962.8023,-307.0143 952.2527,-306.0367 953.9456,-312.8289"/>
</g>
<!-- models/rating.js&#45;&gt;config/bookshelf.js -->
<g id="edge23" class="edge">
<title>models/rating.js&#45;&gt;config/bookshelf.js</title>
<path fill="none" stroke="#757575" d="M900.6515,-295.5C911.6656,-295.5 923.3763,-295.5 934.8732,-295.5"/>
<polygon fill="#757575" stroke="#757575" points="934.8986,-299.0001 944.8986,-295.5 934.8986,-292.0001 934.8986,-299.0001"/>
</g>
<!-- models/session.js&#45;&gt;config/bookshelf.js -->
<g id="edge24" class="edge">
<title>models/session.js&#45;&gt;config/bookshelf.js</title>
<path fill="none" stroke="#757575" d="M890.7602,-266.0299C910.115,-270.8539 932.7818,-276.5034 953.0628,-281.5582"/>
<polygon fill="#757575" stroke="#757575" points="952.2527,-284.9633 962.8023,-283.9857 953.9456,-278.1711 952.2527,-284.9633"/>
</g>
<!-- utils/role.js -->
<g id="node23" class="node">
<title>utils/role.js</title>
<path fill="none" stroke="#cfffac" d="M72.3333,-269C72.3333,-269 7.6667,-269 7.6667,-269 3.8333,-269 0,-265.1667 0,-261.3333 0,-261.3333 0,-253.6667 0,-253.6667 0,-249.8333 3.8333,-246 7.6667,-246 7.6667,-246 72.3333,-246 72.3333,-246 76.1667,-246 80,-249.8333 80,-253.6667 80,-253.6667 80,-261.3333 80,-261.3333 80,-265.1667 76.1667,-269 72.3333,-269"/>
<text text-anchor="middle" x="40" y="-253.8" font-family="Arial" font-size="14.00" fill="#cfffac">utils/role.js</text>
</g>
</g>
</svg>
